<mxfile host="Electron" modified="2023-11-18T16:59:35.323Z" agent="Mozilla/5.0 (Windows NT 10.0; Win64; x64) AppleWebKit/537.36 (KHTML, like Gecko) draw.io/22.1.2 Chrome/114.0.5735.289 Electron/25.9.4 Safari/537.36" etag="U727hNK_YDU9TN9LofEs" version="22.1.2" type="device">
  <diagram name="Page-1" id="u4Ifom2Jg-na8-LkYCIb">
    <mxGraphModel dx="1434" dy="884" grid="1" gridSize="10" guides="1" tooltips="1" connect="1" arrows="1" fold="1" page="1" pageScale="1" pageWidth="850" pageHeight="1100" math="0" shadow="0">
      <root>
        <mxCell id="0" />
        <mxCell id="1" parent="0" />
        <mxCell id="NcuqfvxynLKlHpMQaslT-1" value="&lt;font size=&quot;1&quot; style=&quot;&quot;&gt;&lt;b style=&quot;font-size: 25px;&quot;&gt;RAM_CNTRL&lt;/b&gt;&lt;/font&gt;" style="rounded=0;whiteSpace=wrap;html=1;strokeWidth=4;" vertex="1" parent="1">
          <mxGeometry x="240" y="160" width="320" height="600" as="geometry" />
        </mxCell>
        <mxCell id="NcuqfvxynLKlHpMQaslT-2" value="" style="endArrow=block;html=1;strokeWidth=2;endFill=1;rounded=0;" edge="1" parent="1">
          <mxGeometry width="50" height="50" relative="1" as="geometry">
            <mxPoint x="130" y="340" as="sourcePoint" />
            <mxPoint x="240" y="340" as="targetPoint" />
          </mxGeometry>
        </mxCell>
        <mxCell id="NcuqfvxynLKlHpMQaslT-3" value="" style="endArrow=block;html=1;strokeWidth=2;endFill=1;rounded=0;" edge="1" parent="1">
          <mxGeometry width="50" height="50" relative="1" as="geometry">
            <mxPoint x="130" y="280" as="sourcePoint" />
            <mxPoint x="240" y="280" as="targetPoint" />
          </mxGeometry>
        </mxCell>
        <mxCell id="NcuqfvxynLKlHpMQaslT-4" value="&lt;font size=&quot;1&quot; style=&quot;&quot;&gt;&lt;b style=&quot;font-size: 18px;&quot;&gt;CLK_I&lt;/b&gt;&lt;/font&gt;" style="text;html=1;strokeColor=none;fillColor=none;align=center;verticalAlign=middle;whiteSpace=wrap;rounded=0;fontSize=16;" vertex="1" parent="1">
          <mxGeometry x="130" y="250" width="70" height="30" as="geometry" />
        </mxCell>
        <mxCell id="NcuqfvxynLKlHpMQaslT-5" value="&lt;font size=&quot;1&quot; style=&quot;&quot;&gt;&lt;b style=&quot;font-size: 18px;&quot;&gt;RST_I&lt;/b&gt;&lt;/font&gt;" style="text;html=1;strokeColor=none;fillColor=none;align=center;verticalAlign=middle;whiteSpace=wrap;rounded=0;fontSize=16;" vertex="1" parent="1">
          <mxGeometry x="130" y="310" width="70" height="30" as="geometry" />
        </mxCell>
        <mxCell id="NcuqfvxynLKlHpMQaslT-8" value="" style="triangle;whiteSpace=wrap;html=1;strokeWidth=4;" vertex="1" parent="1">
          <mxGeometry x="240" y="270" width="20" height="25" as="geometry" />
        </mxCell>
        <mxCell id="NcuqfvxynLKlHpMQaslT-18" value="" style="endArrow=block;html=1;strokeWidth=2;endFill=1;rounded=0;" edge="1" parent="1">
          <mxGeometry width="50" height="50" relative="1" as="geometry">
            <mxPoint x="130" y="399" as="sourcePoint" />
            <mxPoint x="240" y="399" as="targetPoint" />
          </mxGeometry>
        </mxCell>
        <mxCell id="NcuqfvxynLKlHpMQaslT-19" value="&lt;font size=&quot;1&quot; style=&quot;&quot;&gt;&lt;b style=&quot;font-size: 18px;&quot;&gt;RNW_I&lt;/b&gt;&lt;/font&gt;" style="text;html=1;strokeColor=none;fillColor=none;align=center;verticalAlign=middle;whiteSpace=wrap;rounded=0;fontSize=16;" vertex="1" parent="1">
          <mxGeometry x="130" y="369" width="70" height="30" as="geometry" />
        </mxCell>
        <mxCell id="NcuqfvxynLKlHpMQaslT-20" value="" style="endArrow=block;html=1;strokeWidth=6;endFill=1;rounded=0;" edge="1" parent="1">
          <mxGeometry width="50" height="50" relative="1" as="geometry">
            <mxPoint x="80" y="520" as="sourcePoint" />
            <mxPoint x="240" y="520" as="targetPoint" />
          </mxGeometry>
        </mxCell>
        <mxCell id="NcuqfvxynLKlHpMQaslT-21" value="&lt;font size=&quot;1&quot; style=&quot;&quot;&gt;&lt;b style=&quot;font-size: 18px;&quot;&gt;BE_I&lt;/b&gt;&lt;/font&gt;" style="text;html=1;strokeColor=none;fillColor=none;align=center;verticalAlign=middle;whiteSpace=wrap;rounded=0;fontSize=16;" vertex="1" parent="1">
          <mxGeometry x="100" y="490" width="70" height="30" as="geometry" />
        </mxCell>
        <mxCell id="NcuqfvxynLKlHpMQaslT-26" value="" style="endArrow=block;html=1;strokeWidth=2;endFill=1;rounded=0;" edge="1" parent="1">
          <mxGeometry width="50" height="50" relative="1" as="geometry">
            <mxPoint x="130" y="457" as="sourcePoint" />
            <mxPoint x="240" y="457" as="targetPoint" />
          </mxGeometry>
        </mxCell>
        <mxCell id="NcuqfvxynLKlHpMQaslT-27" value="&lt;font size=&quot;1&quot; style=&quot;&quot;&gt;&lt;b style=&quot;font-size: 18px;&quot;&gt;CS_I&lt;br&gt;&lt;/b&gt;&lt;/font&gt;" style="text;html=1;strokeColor=none;fillColor=none;align=center;verticalAlign=middle;whiteSpace=wrap;rounded=0;fontSize=16;" vertex="1" parent="1">
          <mxGeometry x="130" y="428" width="70" height="30" as="geometry" />
        </mxCell>
        <mxCell id="NcuqfvxynLKlHpMQaslT-54" value="&lt;b style=&quot;&quot;&gt;&lt;sub style=&quot;&quot;&gt;&lt;font style=&quot;font-size: 15px;&quot;&gt;4&lt;/font&gt;&lt;/sub&gt;&lt;/b&gt;" style="text;html=1;strokeColor=none;fillColor=none;align=center;verticalAlign=middle;whiteSpace=wrap;rounded=0;fontSize=16;" vertex="1" parent="1">
          <mxGeometry x="200" y="490" width="20" height="22" as="geometry" />
        </mxCell>
        <mxCell id="NcuqfvxynLKlHpMQaslT-56" value="" style="endArrow=none;html=1;rounded=0;strokeWidth=3;" edge="1" parent="1">
          <mxGeometry width="50" height="50" relative="1" as="geometry">
            <mxPoint x="190" y="532" as="sourcePoint" />
            <mxPoint x="200" y="512" as="targetPoint" />
          </mxGeometry>
        </mxCell>
        <mxCell id="NcuqfvxynLKlHpMQaslT-70" value="" style="endArrow=block;html=1;strokeWidth=6;endFill=1;rounded=0;" edge="1" parent="1">
          <mxGeometry width="50" height="50" relative="1" as="geometry">
            <mxPoint x="80" y="580" as="sourcePoint" />
            <mxPoint x="240" y="580" as="targetPoint" />
          </mxGeometry>
        </mxCell>
        <mxCell id="NcuqfvxynLKlHpMQaslT-71" value="&lt;font size=&quot;1&quot; style=&quot;&quot;&gt;&lt;b style=&quot;font-size: 18px;&quot;&gt;ADDR_I&lt;br&gt;&lt;/b&gt;&lt;/font&gt;" style="text;html=1;strokeColor=none;fillColor=none;align=center;verticalAlign=middle;whiteSpace=wrap;rounded=0;fontSize=16;" vertex="1" parent="1">
          <mxGeometry x="110" y="548" width="70" height="30" as="geometry" />
        </mxCell>
        <mxCell id="NcuqfvxynLKlHpMQaslT-72" value="&lt;span style=&quot;font-size: 15px;&quot;&gt;&lt;b&gt;32&lt;/b&gt;&lt;/span&gt;" style="text;html=1;strokeColor=none;fillColor=none;align=center;verticalAlign=middle;whiteSpace=wrap;rounded=0;fontSize=16;" vertex="1" parent="1">
          <mxGeometry x="200" y="548" width="20" height="22" as="geometry" />
        </mxCell>
        <mxCell id="NcuqfvxynLKlHpMQaslT-73" value="" style="endArrow=none;html=1;rounded=0;strokeWidth=3;" edge="1" parent="1">
          <mxGeometry width="50" height="50" relative="1" as="geometry">
            <mxPoint x="190" y="592" as="sourcePoint" />
            <mxPoint x="200" y="572" as="targetPoint" />
          </mxGeometry>
        </mxCell>
        <mxCell id="NcuqfvxynLKlHpMQaslT-74" value="" style="endArrow=block;html=1;strokeWidth=6;endFill=1;rounded=0;" edge="1" parent="1">
          <mxGeometry width="50" height="50" relative="1" as="geometry">
            <mxPoint x="80" y="640" as="sourcePoint" />
            <mxPoint x="240" y="639" as="targetPoint" />
          </mxGeometry>
        </mxCell>
        <mxCell id="NcuqfvxynLKlHpMQaslT-75" value="&lt;font size=&quot;1&quot; style=&quot;&quot;&gt;&lt;b style=&quot;font-size: 18px;&quot;&gt;DATA_I&lt;/b&gt;&lt;/font&gt;" style="text;html=1;strokeColor=none;fillColor=none;align=center;verticalAlign=middle;whiteSpace=wrap;rounded=0;fontSize=16;" vertex="1" parent="1">
          <mxGeometry x="110" y="608" width="70" height="30" as="geometry" />
        </mxCell>
        <mxCell id="NcuqfvxynLKlHpMQaslT-76" value="&lt;b style=&quot;&quot;&gt;&lt;sub style=&quot;&quot;&gt;&lt;font style=&quot;font-size: 15px;&quot;&gt;32&lt;/font&gt;&lt;/sub&gt;&lt;/b&gt;" style="text;html=1;strokeColor=none;fillColor=none;align=center;verticalAlign=middle;whiteSpace=wrap;rounded=0;fontSize=16;" vertex="1" parent="1">
          <mxGeometry x="200" y="608" width="20" height="22" as="geometry" />
        </mxCell>
        <mxCell id="NcuqfvxynLKlHpMQaslT-77" value="" style="endArrow=none;html=1;rounded=0;strokeWidth=3;" edge="1" parent="1">
          <mxGeometry width="50" height="50" relative="1" as="geometry">
            <mxPoint x="190" y="651" as="sourcePoint" />
            <mxPoint x="200" y="631" as="targetPoint" />
          </mxGeometry>
        </mxCell>
        <mxCell id="NcuqfvxynLKlHpMQaslT-78" value="" style="endArrow=block;html=1;strokeWidth=2;endFill=1;rounded=0;" edge="1" parent="1">
          <mxGeometry width="50" height="50" relative="1" as="geometry">
            <mxPoint x="560" y="199" as="sourcePoint" />
            <mxPoint x="720" y="199" as="targetPoint" />
          </mxGeometry>
        </mxCell>
        <mxCell id="NcuqfvxynLKlHpMQaslT-79" value="&lt;b style=&quot;border-color: var(--border-color); font-size: 18px;&quot;&gt;RD_ACK_O&lt;/b&gt;" style="text;html=1;strokeColor=none;fillColor=none;align=center;verticalAlign=middle;whiteSpace=wrap;rounded=0;fontSize=16;" vertex="1" parent="1">
          <mxGeometry x="590" y="170" width="70" height="30" as="geometry" />
        </mxCell>
        <mxCell id="NcuqfvxynLKlHpMQaslT-84" value="" style="endArrow=block;html=1;strokeWidth=2;endFill=1;rounded=0;" edge="1" parent="1">
          <mxGeometry width="50" height="50" relative="1" as="geometry">
            <mxPoint x="560" y="259" as="sourcePoint" />
            <mxPoint x="720" y="259" as="targetPoint" />
          </mxGeometry>
        </mxCell>
        <mxCell id="NcuqfvxynLKlHpMQaslT-85" value="&lt;b style=&quot;border-color: var(--border-color); font-size: 18px;&quot;&gt;WR_ACK_O&lt;/b&gt;" style="text;html=1;strokeColor=none;fillColor=none;align=center;verticalAlign=middle;whiteSpace=wrap;rounded=0;fontSize=16;" vertex="1" parent="1">
          <mxGeometry x="590" y="230" width="70" height="30" as="geometry" />
        </mxCell>
        <mxCell id="NcuqfvxynLKlHpMQaslT-116" value="" style="endArrow=block;html=1;strokeWidth=6;endFill=1;rounded=0;" edge="1" parent="1">
          <mxGeometry width="50" height="50" relative="1" as="geometry">
            <mxPoint x="560" y="612" as="sourcePoint" />
            <mxPoint x="720" y="612" as="targetPoint" />
          </mxGeometry>
        </mxCell>
        <mxCell id="NcuqfvxynLKlHpMQaslT-117" value="&lt;font size=&quot;1&quot; style=&quot;&quot;&gt;&lt;b style=&quot;font-size: 18px;&quot;&gt;DATA_O&lt;br&gt;&lt;/b&gt;&lt;/font&gt;" style="text;html=1;strokeColor=none;fillColor=none;align=center;verticalAlign=middle;whiteSpace=wrap;rounded=0;fontSize=16;" vertex="1" parent="1">
          <mxGeometry x="590" y="580" width="70" height="30" as="geometry" />
        </mxCell>
        <mxCell id="NcuqfvxynLKlHpMQaslT-118" value="&lt;span style=&quot;font-size: 15px;&quot;&gt;&lt;b&gt;32&lt;/b&gt;&lt;/span&gt;" style="text;html=1;strokeColor=none;fillColor=none;align=center;verticalAlign=middle;whiteSpace=wrap;rounded=0;fontSize=16;" vertex="1" parent="1">
          <mxGeometry x="680" y="580" width="20" height="22" as="geometry" />
        </mxCell>
        <mxCell id="NcuqfvxynLKlHpMQaslT-119" value="" style="endArrow=none;html=1;rounded=0;strokeWidth=3;" edge="1" parent="1">
          <mxGeometry width="50" height="50" relative="1" as="geometry">
            <mxPoint x="670" y="624" as="sourcePoint" />
            <mxPoint x="680" y="604" as="targetPoint" />
          </mxGeometry>
        </mxCell>
        <mxCell id="NcuqfvxynLKlHpMQaslT-121" value="" style="endArrow=block;html=1;strokeWidth=6;endFill=1;rounded=0;" edge="1" parent="1">
          <mxGeometry width="50" height="50" relative="1" as="geometry">
            <mxPoint x="560" y="671" as="sourcePoint" />
            <mxPoint x="720" y="671" as="targetPoint" />
          </mxGeometry>
        </mxCell>
        <mxCell id="NcuqfvxynLKlHpMQaslT-122" value="&lt;font size=&quot;1&quot; style=&quot;&quot;&gt;&lt;b style=&quot;font-size: 18px;&quot;&gt;MEM_DQ_O&lt;br&gt;&lt;/b&gt;&lt;/font&gt;" style="text;html=1;strokeColor=none;fillColor=none;align=center;verticalAlign=middle;whiteSpace=wrap;rounded=0;fontSize=16;" vertex="1" parent="1">
          <mxGeometry x="590" y="639" width="70" height="30" as="geometry" />
        </mxCell>
        <mxCell id="NcuqfvxynLKlHpMQaslT-123" value="&lt;span style=&quot;font-size: 15px;&quot;&gt;&lt;b&gt;27&lt;/b&gt;&lt;/span&gt;" style="text;html=1;strokeColor=none;fillColor=none;align=center;verticalAlign=middle;whiteSpace=wrap;rounded=0;fontSize=16;" vertex="1" parent="1">
          <mxGeometry x="680" y="639" width="20" height="22" as="geometry" />
        </mxCell>
        <mxCell id="NcuqfvxynLKlHpMQaslT-124" value="" style="endArrow=none;html=1;rounded=0;strokeWidth=3;" edge="1" parent="1">
          <mxGeometry width="50" height="50" relative="1" as="geometry">
            <mxPoint x="670" y="683" as="sourcePoint" />
            <mxPoint x="680" y="663" as="targetPoint" />
          </mxGeometry>
        </mxCell>
        <mxCell id="NcuqfvxynLKlHpMQaslT-125" value="" style="endArrow=block;html=1;strokeWidth=6;endFill=1;rounded=0;" edge="1" parent="1">
          <mxGeometry width="50" height="50" relative="1" as="geometry">
            <mxPoint x="560" y="726" as="sourcePoint" />
            <mxPoint x="720" y="726" as="targetPoint" />
          </mxGeometry>
        </mxCell>
        <mxCell id="NcuqfvxynLKlHpMQaslT-126" value="&lt;font size=&quot;1&quot; style=&quot;&quot;&gt;&lt;b style=&quot;font-size: 18px;&quot;&gt;MEM_DQ_T&lt;br&gt;&lt;/b&gt;&lt;/font&gt;" style="text;html=1;strokeColor=none;fillColor=none;align=center;verticalAlign=middle;whiteSpace=wrap;rounded=0;fontSize=16;" vertex="1" parent="1">
          <mxGeometry x="590" y="694" width="70" height="30" as="geometry" />
        </mxCell>
        <mxCell id="NcuqfvxynLKlHpMQaslT-127" value="&lt;span style=&quot;font-size: 15px;&quot;&gt;&lt;b&gt;16&lt;/b&gt;&lt;/span&gt;" style="text;html=1;strokeColor=none;fillColor=none;align=center;verticalAlign=middle;whiteSpace=wrap;rounded=0;fontSize=16;" vertex="1" parent="1">
          <mxGeometry x="680" y="694" width="20" height="22" as="geometry" />
        </mxCell>
        <mxCell id="NcuqfvxynLKlHpMQaslT-128" value="" style="endArrow=none;html=1;rounded=0;strokeWidth=3;" edge="1" parent="1">
          <mxGeometry width="50" height="50" relative="1" as="geometry">
            <mxPoint x="670" y="738" as="sourcePoint" />
            <mxPoint x="680" y="718" as="targetPoint" />
          </mxGeometry>
        </mxCell>
        <mxCell id="NcuqfvxynLKlHpMQaslT-129" value="" style="endArrow=block;html=1;strokeWidth=2;endFill=1;rounded=0;" edge="1" parent="1">
          <mxGeometry width="50" height="50" relative="1" as="geometry">
            <mxPoint x="560" y="321" as="sourcePoint" />
            <mxPoint x="720" y="321" as="targetPoint" />
          </mxGeometry>
        </mxCell>
        <mxCell id="NcuqfvxynLKlHpMQaslT-130" value="&lt;font size=&quot;1&quot; style=&quot;&quot;&gt;&lt;b style=&quot;font-size: 18px;&quot;&gt;MEM_CEN&lt;br&gt;&lt;/b&gt;&lt;/font&gt;" style="text;html=1;strokeColor=none;fillColor=none;align=center;verticalAlign=middle;whiteSpace=wrap;rounded=0;fontSize=16;" vertex="1" parent="1">
          <mxGeometry x="590" y="289" width="70" height="30" as="geometry" />
        </mxCell>
        <mxCell id="NcuqfvxynLKlHpMQaslT-142" value="" style="endArrow=block;html=1;strokeWidth=2;endFill=1;rounded=0;" edge="1" parent="1">
          <mxGeometry width="50" height="50" relative="1" as="geometry">
            <mxPoint x="560" y="381" as="sourcePoint" />
            <mxPoint x="720" y="381" as="targetPoint" />
          </mxGeometry>
        </mxCell>
        <mxCell id="NcuqfvxynLKlHpMQaslT-143" value="&lt;font size=&quot;1&quot; style=&quot;&quot;&gt;&lt;b style=&quot;font-size: 18px;&quot;&gt;MEM_OEN&lt;br&gt;&lt;/b&gt;&lt;/font&gt;" style="text;html=1;strokeColor=none;fillColor=none;align=center;verticalAlign=middle;whiteSpace=wrap;rounded=0;fontSize=16;" vertex="1" parent="1">
          <mxGeometry x="590" y="349" width="70" height="30" as="geometry" />
        </mxCell>
        <mxCell id="NcuqfvxynLKlHpMQaslT-144" value="" style="endArrow=block;html=1;strokeWidth=2;endFill=1;rounded=0;" edge="1" parent="1">
          <mxGeometry width="50" height="50" relative="1" as="geometry">
            <mxPoint x="560" y="442.00000000000006" as="sourcePoint" />
            <mxPoint x="720" y="442.00000000000006" as="targetPoint" />
          </mxGeometry>
        </mxCell>
        <mxCell id="NcuqfvxynLKlHpMQaslT-145" value="&lt;font size=&quot;1&quot; style=&quot;&quot;&gt;&lt;b style=&quot;font-size: 18px;&quot;&gt;MEM_WEN&lt;br&gt;&lt;/b&gt;&lt;/font&gt;" style="text;html=1;strokeColor=none;fillColor=none;align=center;verticalAlign=middle;whiteSpace=wrap;rounded=0;fontSize=16;" vertex="1" parent="1">
          <mxGeometry x="590" y="410.00000000000006" width="70" height="30" as="geometry" />
        </mxCell>
        <mxCell id="NcuqfvxynLKlHpMQaslT-146" value="" style="endArrow=block;html=1;strokeWidth=2;endFill=1;rounded=0;" edge="1" parent="1">
          <mxGeometry width="50" height="50" relative="1" as="geometry">
            <mxPoint x="560" y="497.00000000000006" as="sourcePoint" />
            <mxPoint x="720" y="497.00000000000006" as="targetPoint" />
          </mxGeometry>
        </mxCell>
        <mxCell id="NcuqfvxynLKlHpMQaslT-147" value="&lt;font size=&quot;1&quot; style=&quot;&quot;&gt;&lt;b style=&quot;font-size: 18px;&quot;&gt;MEM_UB&lt;br&gt;&lt;/b&gt;&lt;/font&gt;" style="text;html=1;strokeColor=none;fillColor=none;align=center;verticalAlign=middle;whiteSpace=wrap;rounded=0;fontSize=16;" vertex="1" parent="1">
          <mxGeometry x="590" y="465.00000000000006" width="70" height="30" as="geometry" />
        </mxCell>
        <mxCell id="NcuqfvxynLKlHpMQaslT-150" value="" style="endArrow=block;html=1;strokeWidth=2;endFill=1;rounded=0;" edge="1" parent="1">
          <mxGeometry width="50" height="50" relative="1" as="geometry">
            <mxPoint x="560" y="558.5" as="sourcePoint" />
            <mxPoint x="720" y="558.5" as="targetPoint" />
          </mxGeometry>
        </mxCell>
        <mxCell id="NcuqfvxynLKlHpMQaslT-151" value="&lt;font size=&quot;1&quot; style=&quot;&quot;&gt;&lt;b style=&quot;font-size: 18px;&quot;&gt;MEM_LB&lt;br&gt;&lt;/b&gt;&lt;/font&gt;" style="text;html=1;strokeColor=none;fillColor=none;align=center;verticalAlign=middle;whiteSpace=wrap;rounded=0;fontSize=16;" vertex="1" parent="1">
          <mxGeometry x="590" y="526.5" width="70" height="30" as="geometry" />
        </mxCell>
      </root>
    </mxGraphModel>
  </diagram>
</mxfile>
